<?xml version="1.0" encoding="UTF-8" standalone="no"?>
<svg width="500px" height="126px" viewBox="0 0 500 126" version="1.1" xmlns="http://www.w3.org/2000/svg" xmlns:xlink="http://www.w3.org/1999/xlink" xmlns:sketch="http://www.bohemiancoding.com/sketch/ns">
    <!-- Generator: Sketch 3.3.3 (12072) - http://www.bohemiancoding.com/sketch -->
    <title>Logo</title>
    <desc>Created with Sketch.</desc>
    <defs></defs>
    <g id="Page-1" stroke="none" stroke-width="1" fill="none" fill-rule="evenodd" sketch:type="MSPage">
        <g id="Logo" sketch:type="MSArtboardGroup" fill="#3C3C3C">
            <path d="M91.8888032,40.0752394 C91.8888032,54.1519172 87.737682,65.0252694 79.4353149,72.6956224 C71.1329478,80.3659754 59.340316,84.2010944 44.0570659,84.2010944 L34.4907184,84.2010944 L34.4907184,126 L0.448310756,126 L0.448310756,0 L44.0570659,0 C59.9723301,0 71.922963,3.47602543 79.9093231,10.4281806 C87.8956831,17.3803357 91.8888032,27.2625898 91.8888032,40.0752394 L91.8888032,40.0752394 Z M34.4907184,56.4500684 L40.6959168,56.4500684 C45.8094854,56.4500684 49.8744243,55.0136943 52.8908552,52.1409029 C55.9072862,49.2681115 57.415479,45.3037189 57.415479,40.247606 C57.415479,31.7441435 52.7041718,27.4924761 43.2814161,27.4924761 L34.4907184,27.4924761 L34.4907184,56.4500684 Z M180.545391,126 L105.738278,126 L105.738278,0 L180.545391,0 L180.545391,27.3201094 L139.780685,27.3201094 L139.780685,47.1422709 L177.528975,47.1422709 L177.528975,74.4623803 L139.780685,74.4623803 L139.780685,98.248974 L180.545391,98.248974 L180.545391,126 Z M259.06603,126 L225.023622,126 L225.023622,27.8372093 L194.25618,27.8372093 L194.25618,0 L289.747288,0 L289.747288,27.8372093 L259.06603,27.8372093 L259.06603,126 Z M378.364252,126 L303.557138,126 L303.557138,0 L378.364252,0 L378.364252,27.3201094 L337.599546,27.3201094 L337.599546,47.1422709 L375.347836,47.1422709 L375.347836,74.4623803 L337.599546,74.4623803 L337.599546,98.248974 L378.364252,98.248974 L378.364252,126 Z M426.209575,80.1504788 L426.209575,126 L392.167168,126 L392.167168,0 L433.448973,0 C467.692647,0 484.814226,12.4102726 484.814226,37.2311902 C484.814226,51.8249704 477.689811,63.1148711 463.440765,71.1012312 L500.154856,126 L461.544733,126 L434.827906,80.1504788 L426.209575,80.1504788 Z M426.209575,54.5540356 L432.58714,54.5540356 C444.480497,54.5540356 450.427086,49.2969062 450.427086,38.7824897 C450.427086,30.1066598 444.595407,25.7688098 432.931874,25.7688098 L426.209575,25.7688098 L426.209575,54.5540356 Z" id="PETER" sketch:type="MSShapeGroup"></path>
        </g>
    </g>
</svg>